<?xml version="1.0" standalone="no"?>
<!DOCTYPE svg PUBLIC "-//W3C//DTD SVG 20010904//EN"
 "http://www.w3.org/TR/2001/REC-SVG-20010904/DTD/svg10.dtd">
<svg version="1.0" xmlns="http://www.w3.org/2000/svg"
 width="1024.000000pt" height="1024.000000pt" viewBox="0 0 1024.000000 1024.000000"
 preserveAspectRatio="xMidYMid meet">

<g transform="translate(0.000000,1024.000000) scale(0.100000,-0.100000)"
fill="#000000" stroke="none">
<path d="M6147 8990 c-34 -27 -42 -69 -22 -116 33 -79 83 -111 148 -93 58 15
87 44 87 87 0 103 -137 181 -213 122z"/>
<path d="M6006 8818 c-21 -28 -40 -57 -43 -64 -2 -7 22 -31 54 -55 32 -23 60
-43 61 -45 2 -1 -30 -50 -72 -108 -42 -58 -108 -154 -147 -213 -39 -59 -72
-110 -74 -112 -2 -2 -44 28 -92 67 l-88 71 -32 -32 c-34 -32 -40 -27 -23 17 8
21 6 27 -9 36 -10 5 -22 25 -25 43 -4 19 -16 43 -27 53 -21 19 -22 19 -33 0
-6 -10 -30 -42 -53 -72 l-43 -53 58 -26 c31 -14 69 -29 84 -32 l28 -5 -21 -30
c-12 -16 -19 -35 -16 -42 6 -14 101 -82 194 -139 29 -18 78 -49 109 -71 l56
-38 -21 -22 c-31 -33 -38 -82 -15 -108 11 -11 -3 -4 -31 17 -60 46 -84 55
-139 55 -53 0 -84 -31 -183 -180 -39 -58 -105 -154 -147 -214 -42 -60 -76
-114 -76 -121 0 -7 37 -37 82 -66 45 -28 131 -87 191 -131 60 -43 114 -78 120
-78 7 0 46 51 87 113 40 61 114 166 164 232 90 120 117 172 109 205 -3 10 -17
33 -32 51 l-28 33 34 44 c19 25 32 51 29 59 -7 18 15 5 79 -47 28 -22 101 -79
162 -125 62 -47 119 -96 128 -109 20 -30 178 -156 197 -156 3 0 11 14 17 31 6
17 29 52 51 79 l40 48 -60 33 c-33 19 -60 36 -60 40 0 3 13 24 28 45 16 21 50
71 77 109 77 112 177 245 183 245 3 0 36 -30 74 -66 l69 -67 16 24 c9 13 36
45 61 71 51 53 50 59 -21 102 -23 13 -57 41 -75 60 -19 20 -37 34 -41 32 -3
-3 -72 43 -151 101 -80 57 -152 108 -159 113 -12 7 -10 14 13 44 31 42 37 43
61 16 28 -31 54 -25 71 16 8 20 14 40 12 45 -2 4 -49 46 -105 93 l-102 85 -21
-28 c-26 -37 -25 -39 7 -73 l27 -28 -26 -27 c-15 -16 -28 -38 -30 -51 -3 -23
-4 -22 -54 15 -69 52 -254 216 -254 225 0 4 -21 19 -47 32 -27 13 -61 38 -77
55 -17 17 -32 31 -35 31 -3 0 -23 -23 -45 -52z m339 -358 c216 -160 316 -236
365 -278 l45 -40 -35 -48 c-19 -27 -53 -72 -76 -100 -22 -28 -74 -99 -114
-158 -39 -58 -76 -108 -80 -111 -10 -6 -183 112 -330 226 -58 45 -135 104
-172 132 -38 27 -68 56 -68 63 0 16 98 161 217 322 59 80 88 111 96 104 7 -5
75 -55 152 -112z m-484 -657 c13 -16 12 -17 -3 -4 -10 7 -18 15 -18 17 0 8 8
3 21 -13z"/>
<path d="M6102 8348 c-57 -79 -113 -156 -125 -172 -22 -28 -22 -28 -2 -42 11
-8 49 -36 85 -63 36 -26 117 -85 180 -131 63 -45 126 -93 141 -106 14 -13 32
-24 40 -24 7 0 46 48 84 107 39 59 91 136 117 171 26 35 45 68 42 73 -3 5 -26
21 -52 36 -57 32 -340 242 -366 272 -11 11 -24 21 -30 21 -6 0 -58 -64 -114
-142z"/>
<path d="M5184 8343 c-15 -38 -50 -107 -76 -154 -26 -48 -53 -111 -58 -139 -6
-30 -10 -248 -10 -506 l0 -454 50 50 c56 57 62 85 35 173 -12 40 -12 53 -1 85
19 51 52 109 96 162 l37 45 -8 370 c-7 356 -13 435 -29 435 -4 0 -20 -30 -36
-67z"/>
<path d="M3295 5515 c0 -1352 4 -2407 9 -2398 4 8 23 52 41 97 58 144 97 230
115 256 10 14 32 54 50 90 18 36 44 79 57 96 l24 32 2 820 c1 451 4 823 7 826
4 3 240 6 525 6 l520 1 0 -808 1 -809 26 -35 c14 -18 53 -88 87 -154 74 -145
145 -273 160 -288 8 -8 11 391 11 1534 0 850 3 1586 6 1636 l7 90 -58 6 c-31
3 -59 8 -62 11 -3 3 9 36 27 73 63 132 72 169 76 303 8 258 11 950 4 950 -4 0
-24 -42 -45 -92 -42 -102 -178 -383 -213 -440 l-22 -36 -3 -798 -2 -799 -528
-2 -529 -2 3 797 3 798 -30 49 c-41 67 -114 227 -190 417 -34 86 -66 163 -71
171 -4 9 -8 -1071 -8 -2398z"/>
<path d="M6680 7547 c0 -7 -18 -31 -40 -52 -22 -21 -40 -45 -40 -51 0 -14 74
-81 108 -97 19 -9 27 -6 57 23 50 48 47 70 -9 70 -61 0 -76 21 -31 43 39 19
44 36 17 60 -22 20 -62 22 -62 4z"/>
<path d="M5263 7249 c-18 -76 -53 -144 -118 -234 -32 -44 -75 -118 -97 -165
-51 -112 -87 -181 -107 -204 -43 -51 45 18 179 139 30 28 76 68 102 88 27 21
62 59 79 85 50 74 110 132 157 153 25 11 42 24 40 31 -3 9 -213 158 -222 158
-1 0 -7 -23 -13 -51z"/>
<path d="M5710 7065 c-30 -22 -73 -40 -205 -88 -16 -6 -51 -31 -77 -55 l-47
-44 -1 -1799 c0 -989 -3 -1805 -6 -1814 -4 -8 -3 -15 0 -15 4 0 23 33 42 73
83 171 217 388 248 400 9 3 15 28 18 66 2 33 7 64 11 68 11 10 195 22 364 22
244 1 417 45 583 147 97 59 166 127 244 239 130 189 169 314 170 550 1 128 -3
162 -22 230 -48 164 -136 300 -265 404 -37 30 -67 60 -67 67 0 6 31 44 70 83
149 153 211 280 239 496 13 90 2 241 -24 340 -21 80 -85 214 -140 291 -81 112
-243 241 -369 292 -110 45 -221 60 -486 66 l-245 6 -35 -25z m565 -339 c82
-22 191 -77 244 -123 144 -123 213 -316 176 -496 -47 -233 -206 -383 -442
-417 -38 -5 -158 -10 -268 -10 l-200 0 3 -170 3 -170 212 0 c336 0 454 -30
575 -144 101 -95 144 -181 162 -322 34 -266 -128 -526 -389 -625 -64 -24 -236
-37 -503 -38 -141 -1 -157 1 -162 17 -7 25 -11 820 -9 1736 l2 789 268 -6
c203 -4 283 -9 328 -21z"/>
<path d="M5224 6703 c-36 -63 -98 -148 -146 -200 -21 -24 -38 -48 -38 -55 0
-7 0 -795 0 -1750 0 -1246 3 -1753 11 -1790 7 -29 22 -77 35 -106 13 -29 26
-69 30 -90 13 -71 43 -140 62 -138 9 0 20 6 24 12 17 26 39 214 48 409 8 180
12 3755 5 3755 -2 0 -16 -21 -31 -47z"/>
<path d="M2595 2130 c-17 -18 -17 -21 -1 -45 9 -14 17 -25 19 -25 1 0 2 20 2
45 0 25 0 45 -1 45 0 0 -9 -9 -19 -20z"/>
</g>
</svg>
